# xmcd
#
# Track frame offsets: 
#        150
#        25041
#        42335
#        57127
#        73961
#        95020
#        113210
#        135458
#        160416
#        179337
#        195261
#        213471
#        230594
#        254159
#        283716
#
# Disc length: 4121 seconds
#
# Revision: 1
# Processed by: cddbd v1.5.2PL0 Copyright (c) Steve Scherf et al.
# Submitted via: ExactAudioCopy v1.0b3
#
DISCID=e010170f
DTITLE=GACKT - THE ELEVENTH DAY ～SINGLE COLLECTION～
DYEAR=2010
DGENRE=Rock
TTITLE0=君に逢いたくて 
TTITLE1=ありったけの愛で
TTITLE2=BLACK STONE
TTITLE3=METAMORPHOZE ~メタモルフォーゼ~ 
TTITLE4=届カナイ愛ト知ッテイタノニ抑エキレズニ愛シ続ケタ・・・  
TTITLE5=REDEMPTION
TTITLE6=Love Letter
TTITLE7=野に咲く花のように 
TTITLE8=RETURNER ~闇の終焉~ 
TTITLE9=Jesus
TTITLE10=GHOST
TTITLE11=小悪魔ヘヴン 
TTITLE12=FARAWAY ~星に願いを~
TTITLE13=LOST ANGELS
TTITLE14=Flower
EXTD=
EXTT0=
EXTT1=
EXTT2=
EXTT3=
EXTT4=
EXTT5=
EXTT6=
EXTT7=
EXTT8=
EXTT9=
EXTT10=
EXTT11=
EXTT12=
EXTT13=
EXTT14=
PLAYORDER=
